<svg width="48" height="48" viewBox="0 0 48 48" fill="none" xmlns="http://www.w3.org/2000/svg">
<rect width="48" height="48" fill="#E4E4E4"/>
<rect x="-79.5" y="-691.5" width="269" height="3012" rx="4.5" fill="white"/>
<rect x="-79.5" y="-691.5" width="269" height="3012" rx="4.5" stroke="#9747FF" stroke-dasharray="10 5"/>
<rect width="48" height="48" rx="6" fill="url(#paint0_linear_9237_2044)"/>
<path d="M13.1342 28.2526L15.3604 26.9674C15.481 26.8978 15.6225 26.8737 15.7594 26.8993L20.1396 27.7191C20.4996 27.7864 20.8319 27.5093 20.8303 27.1431L20.8132 23.3052C20.8128 23.2009 20.8403 23.0984 20.8929 23.0084L23.1034 19.2239C23.2184 19.0269 23.2081 18.781 23.077 18.5943L19.3551 13.2966M32.1666 15.6689C25.7499 18.75 29.2497 22.8334 30.4166 23.4167C32.6065 24.5115 35.6519 24.5833 35.6519 24.5833C35.6614 24.3901 35.6663 24.1956 35.6663 24C35.6663 17.5567 30.443 12.3333 23.9997 12.3333C17.5564 12.3333 12.333 17.5567 12.333 24C12.333 30.4433 17.5564 35.6666 23.9997 35.6666C24.1953 35.6666 24.3898 35.6618 24.583 35.6523M29.5504 35.5964L25.8558 25.8561L35.5961 29.5507L31.2769 31.2772L29.5504 35.5964Z" stroke="white" stroke-width="2" stroke-linecap="round" stroke-linejoin="round"/>
<defs>
<linearGradient id="paint0_linear_9237_2044" x1="48.1021" y1="48" x2="-3.76451" y2="4.62345" gradientUnits="userSpaceOnUse">
<stop stop-color="#BDE500"/>
<stop offset="1" stop-color="#4CE500"/>
</linearGradient>
</defs>
</svg>
