<svg width="48" height="48" viewBox="0 0 48 48" fill="none" xmlns="http://www.w3.org/2000/svg">
<rect width="48" height="48" fill="#E4E4E4"/>
<rect x="-79.5" y="-859.5" width="269" height="3012" rx="4.5" fill="white"/>
<rect x="-79.5" y="-859.5" width="269" height="3012" rx="4.5" stroke="#9747FF" stroke-dasharray="10 5"/>
<rect width="48" height="48" rx="6" fill="url(#paint0_linear_9237_2044)"/>
<path d="M35.6663 20.5H12.333M26.333 30.4167L29.2497 27.5L26.333 24.5833M21.6663 24.5833L18.7497 27.5L21.6663 30.4167M12.333 19.1L12.333 28.9C12.333 30.8602 12.333 31.8403 12.7145 32.589C13.05 33.2475 13.5855 33.783 14.244 34.1185C14.9927 34.5 15.9728 34.5 17.933 34.5H30.0663C32.0265 34.5 33.0066 34.5 33.7553 34.1185C34.4139 33.783 34.9493 33.2475 35.2849 32.589C35.6663 31.8403 35.6663 30.8602 35.6663 28.9V19.1C35.6663 17.1398 35.6663 16.1597 35.2849 15.411C34.9493 14.7525 34.4139 14.217 33.7553 13.8815C33.0066 13.5 32.0265 13.5 30.0663 13.5L17.933 13.5C15.9728 13.5 14.9927 13.5 14.244 13.8815C13.5855 14.217 13.05 14.7525 12.7145 15.411C12.333 16.1597 12.333 17.1398 12.333 19.1Z" stroke="white" stroke-width="2" stroke-linecap="round" stroke-linejoin="round"/>
<defs>
<linearGradient id="paint0_linear_9237_2044" x1="48.1021" y1="48" x2="-3.76451" y2="4.62345" gradientUnits="userSpaceOnUse">
<stop stop-color="#BDE500"/>
<stop offset="1" stop-color="#4CE500"/>
</linearGradient>
</defs>
</svg>
